<?xml version="1.0" encoding="UTF-8" standalone="no"?>
<svg
   xmlns:dc="http://purl.org/dc/elements/1.1/"
   xmlns:cc="http://creativecommons.org/ns#"
   xmlns:rdf="http://www.w3.org/1999/02/22-rdf-syntax-ns#"
   xmlns:svg="http://www.w3.org/2000/svg"
   xmlns="http://www.w3.org/2000/svg"
   xmlns:sodipodi="http://sodipodi.sourceforge.net/DTD/sodipodi-0.dtd"
   xmlns:inkscape="http://www.inkscape.org/namespaces/inkscape"
   width="200mm"
   height="200mm"
   viewBox="0 0 200 200.00001"
   version="1.1"
   id="svg8"
   inkscape:version="1.0.2 (e86c8708, 2021-01-15)"
   sodipodi:docname="icons.svg"
   inkscape:export-filename="/Users/maybites/Arbeiten/01_projekte/181111_IASpace/01_projekte/20xx_Telematik/01_dev/telemersive-gateway/media/UI_Switch.png"
   inkscape:export-xdpi="30.719999"
   inkscape:export-ydpi="30.719999">
  <defs
     id="defs2" />
  <sodipodi:namedview
     id="base"
     pagecolor="#ffffff"
     bordercolor="#666666"
     borderopacity="1.0"
     inkscape:pageopacity="0.0"
     inkscape:pageshadow="2"
     inkscape:zoom="0.44413737"
     inkscape:cx="227.94774"
     inkscape:cy="518.32364"
     inkscape:document-units="mm"
     inkscape:current-layer="g1142"
     inkscape:document-rotation="0"
     showgrid="false"
     units="mm"
     width="200mm"
     inkscape:window-width="1252"
     inkscape:window-height="855"
     inkscape:window-x="0"
     inkscape:window-y="23"
     inkscape:window-maximized="0"
     showguides="true"
     inkscape:guide-bbox="true" />
  <metadata
     id="metadata5">
    <rdf:RDF>
      <cc:Work
         rdf:about="">
        <dc:format>image/svg+xml</dc:format>
        <dc:type
           rdf:resource="http://purl.org/dc/dcmitype/StillImage" />
        <dc:title></dc:title>
      </cc:Work>
    </rdf:RDF>
  </metadata>
  <g
     inkscape:label="ToServer"
     inkscape:groupmode="layer"
     id="layer1"
     style="display:none"
     sodipodi:insensitive="true">
    <path
       style="fill:#000000;fill-opacity:1;stroke:#000000;stroke-width:0.264583px;stroke-linecap:butt;stroke-linejoin:miter;stroke-opacity:1"
       d="m 10,140 v 50 h 180 v -50 h -20 v 30 H 30 v -30 z"
       id="path833"
       sodipodi:nodetypes="ccccccccc" />
    <path
       style="fill:#000000;fill-opacity:1;stroke:#000000;stroke-width:0.264583px;stroke-linecap:butt;stroke-linejoin:miter;stroke-opacity:1"
       d="M 90.571033,150 89.428967,60 H 70 l 30,-40 30,40 h -20.57103 l 1.14206,90 z"
       id="path853"
       sodipodi:nodetypes="cccccccc" />
    <rect
       style="display:inline;fill:none;fill-opacity:1;fill-rule:evenodd;stroke:#000000;stroke-width:5.29167;stroke-linejoin:round;stroke-miterlimit:4;stroke-dasharray:none;stroke-opacity:1"
       id="rect1778"
       width="199.29001"
       height="199.29001"
       x="0.57103157"
       y="0.57103157" />
  </g>
  <g
     inkscape:groupmode="layer"
     id="layer2"
     inkscape:label="FromServer"
     style="display:none"
     sodipodi:insensitive="true">
    <path
       style="display:inline;fill:#000000;fill-opacity:1;stroke:#000000;stroke-width:0.264583px;stroke-linecap:butt;stroke-linejoin:miter;stroke-opacity:1"
       d="m 10,140 v 50 h 180 v -50 h -20 v 30 H 30 v -30 z"
       id="path880"
       sodipodi:nodetypes="ccccccccc" />
    <path
       style="display:inline;fill:#000000;fill-opacity:1;stroke:#000000;stroke-width:0.264583px;stroke-linecap:butt;stroke-linejoin:miter;stroke-opacity:1"
       d="M 109.42897,19.940146 110.57103,110 H 130 L 99.999999,149.94015 70,110 h 20.571029 l -1.14206,-90.059854 z"
       id="path882"
       sodipodi:nodetypes="cccccccc" />
    <rect
       style="display:inline;fill:none;fill-opacity:1;fill-rule:evenodd;stroke:#000000;stroke-width:5.29167;stroke-linejoin:round;stroke-miterlimit:4;stroke-dasharray:none;stroke-opacity:1"
       id="rect1775"
       width="199.29001"
       height="199.29001"
       x="0.57103157"
       y="0.57103157" />
  </g>
  <g
     inkscape:groupmode="layer"
     id="layer3"
     inkscape:label="FromLocal"
     style="display:none"
     sodipodi:insensitive="true">
    <path
       style="display:inline;fill:#000000;fill-opacity:1;stroke:#000000;stroke-width:0.264583px;stroke-linecap:butt;stroke-linejoin:miter;stroke-opacity:1"
       d="m 10,140 v 50 h 180 v -50 h -20 v 30 H 30 v -30 z"
       id="path887"
       sodipodi:nodetypes="ccccccccc" />
    <path
       style="display:inline;fill:#000000;fill-opacity:1;stroke:#000000;stroke-width:0.264583px;stroke-linecap:butt;stroke-linejoin:miter;stroke-opacity:1"
       d="m 110,60 v 50 h 20 L 99.999999,149.94015 70,110 H 89.999999 V 80 H 10.069642 L 9.930358,60.000001 Z"
       id="path889"
       sodipodi:nodetypes="cccccccccc" />
    <rect
       style="display:inline;fill:none;fill-opacity:1;fill-rule:evenodd;stroke:#000000;stroke-width:5.29167;stroke-linejoin:round;stroke-miterlimit:4;stroke-dasharray:none;stroke-opacity:1"
       id="rect1772"
       width="199.29001"
       height="199.29001"
       x="0.57103157"
       y="0.57103157" />
  </g>
  <g
     inkscape:groupmode="layer"
     id="layer4"
     inkscape:label="ToLocal"
     style="display:none"
     sodipodi:insensitive="true">
    <path
       style="display:inline;fill:#000000;fill-opacity:1;stroke:#000000;stroke-width:0.264583px;stroke-linecap:butt;stroke-linejoin:miter;stroke-opacity:1"
       d="m 10,140 v 50 h 180 v -50 h -20 v 30 H 30 v -30 z"
       id="path894"
       sodipodi:nodetypes="ccccccccc" />
    <path
       style="display:inline;fill:#000000;fill-opacity:1;stroke:#000000;stroke-width:0.264583px;stroke-linecap:butt;stroke-linejoin:miter;stroke-opacity:1"
       d="m 90,60 60,0.254882 V 40 l 40,30 -40,30 V 80.254881 L 110,80 v 69.93036 l -20,0.13928 z"
       id="path896"
       sodipodi:nodetypes="cccccccccc" />
    <rect
       style="fill:none;fill-opacity:1;fill-rule:evenodd;stroke:#000000;stroke-width:5.29167;stroke-linejoin:round;stroke-miterlimit:4;stroke-dasharray:none;stroke-opacity:1"
       id="rect1770"
       width="199.29001"
       height="199.29001"
       x="0.57103157"
       y="0.57103157" />
  </g>
  <g
     inkscape:groupmode="layer"
     id="layer5"
     inkscape:label="Sink"
     style="display:none"
     sodipodi:insensitive="true">
    <path
       style="display:inline;fill:#000000;fill-opacity:1;stroke:#000000;stroke-width:0.264583px;stroke-linecap:butt;stroke-linejoin:miter;stroke-opacity:1"
       d="m 10,140 v 50 h 180 v -50 h -20 v 30 H 30 v -30 z"
       id="path854"
       sodipodi:nodetypes="ccccccccc" />
    <rect
       style="display:inline;fill:none;fill-opacity:1;fill-rule:evenodd;stroke:#000000;stroke-width:5.29167;stroke-linejoin:round;stroke-miterlimit:4;stroke-dasharray:none;stroke-opacity:1"
       id="rect856"
       width="199.29001"
       height="199.29001"
       x="0.57103157"
       y="0.57103157" />
  </g>
  <g
     inkscape:groupmode="layer"
     id="layer8"
     inkscape:label="UpLocal"
     style="display:none"
     sodipodi:insensitive="true">
    <path
       style="display:inline;fill:#000000;fill-opacity:1;stroke:#000000;stroke-width:0.264583px;stroke-linecap:butt;stroke-linejoin:miter;stroke-opacity:1"
       d="m 110,60 40,0.254882 V 40 l 40,30 -40,30 V 80.254881 L 130,80 v 69.93036 l -20,0.13928 z"
       id="path888"
       sodipodi:nodetypes="cccccccccc" />
    <rect
       style="display:inline;fill:none;fill-opacity:1;fill-rule:evenodd;stroke:none;stroke-width:5.29167;stroke-linejoin:round;stroke-miterlimit:4;stroke-dasharray:none;stroke-opacity:1"
       id="rect963"
       width="199.29001"
       height="199.29001"
       x="0.57103157"
       y="0.57103157" />
  </g>
  <g
     inkscape:groupmode="layer"
     id="layer9"
     inkscape:label="DownLocal"
     style="display:none"
     sodipodi:insensitive="true">
    <path
       style="display:inline;fill:#000000;fill-opacity:1;stroke:#000000;stroke-width:0.264583px;stroke-linecap:butt;stroke-linejoin:miter;stroke-opacity:1"
       d="m 69.326146,92.99619 v 31.94097 H 82.098857 L 62.93979,150.4517 43.780725,124.93716 h 12.77271 V 105.77258 H 31.05249 L 30.96354,92.996191 Z"
       id="path892"
       sodipodi:nodetypes="cccccccccc" />
    <rect
       style="display:inline;fill:none;fill-opacity:1;fill-rule:evenodd;stroke:none;stroke-width:5.29167;stroke-linejoin:round;stroke-miterlimit:4;stroke-dasharray:none;stroke-opacity:1"
       id="rect931"
       width="199.29001"
       height="199.29001"
       x="0.57103157"
       y="0.57103157" />
    <rect
       style="display:inline;fill:none;fill-opacity:1;fill-rule:evenodd;stroke:none;stroke-width:5.29167;stroke-linejoin:round;stroke-miterlimit:4;stroke-dasharray:none;stroke-opacity:1"
       id="rect934"
       width="199.29001"
       height="199.29001"
       x="0.57103157"
       y="0.57103157" />
  </g>
  <g
     inkscape:groupmode="layer"
     id="layer6"
     inkscape:label="UpStream"
     style="display:none"
     sodipodi:insensitive="true">
    <path
       style="display:inline;fill:#000000;fill-opacity:1;stroke:#000000;stroke-width:0.264583px;stroke-linecap:butt;stroke-linejoin:miter;stroke-opacity:1"
       d="M 119.98763,149.94015 118.84557,59.940148 H 99.416606 l 29.999994,-40 30,40 h -20.57103 l 1.14206,90.000002 z"
       id="path861"
       sodipodi:nodetypes="cccccccc" />
    <rect
       style="display:inline;fill:none;fill-opacity:1;fill-rule:evenodd;stroke:none;stroke-width:5.29167;stroke-linejoin:round;stroke-miterlimit:4;stroke-dasharray:none;stroke-opacity:1"
       id="rect942"
       width="199.29001"
       height="199.29001"
       x="0.57103157"
       y="0.57103157" />
  </g>
  <g
     inkscape:groupmode="layer"
     id="g988"
     inkscape:label="UpStreamMinor"
     style="display:none"
     sodipodi:insensitive="true">
    <path
       style="display:inline;fill:#000000;fill-opacity:1;stroke:#000000;stroke-width:0.264583px;stroke-linecap:butt;stroke-linejoin:miter;stroke-opacity:1"
       d="m 135.74171,150.16519 -0.56693,-44.85035 h -9.64464 l 14.89216,-19.933489 14.89216,19.933489 h -10.21157 l 0.56692,44.85035 z"
       id="path984"
       sodipodi:nodetypes="cccccccc" />
    <rect
       style="display:inline;fill:none;fill-opacity:1;fill-rule:evenodd;stroke:none;stroke-width:5.29167;stroke-linejoin:round;stroke-miterlimit:4;stroke-dasharray:none;stroke-opacity:1"
       id="rect986"
       width="199.29001"
       height="199.29001"
       x="0.57103157"
       y="0.57103157" />
  </g>
  <g
     inkscape:groupmode="layer"
     id="layer7"
     inkscape:label="DownStream"
     style="display:none"
     sodipodi:insensitive="true">
    <path
       style="display:inline;fill:#000000;fill-opacity:1;stroke:#000000;stroke-width:0.264583px;stroke-linecap:butt;stroke-linejoin:miter;stroke-opacity:1"
       d="m 80.01231,19.999998 1.14206,90.059852 h 19.42897 l -30,39.94015 -30,-39.94015 H 61.15437 L 60.01231,19.999998 Z"
       id="path865"
       sodipodi:nodetypes="cccccccc" />
    <rect
       style="display:inline;fill:none;fill-opacity:1;fill-rule:evenodd;stroke:none;stroke-width:5.29167;stroke-linejoin:round;stroke-miterlimit:4;stroke-dasharray:none;stroke-opacity:1"
       id="rect938"
       width="199.29001"
       height="199.29001"
       x="0.57103157"
       y="0.57103157" />
  </g>
  <g
     inkscape:groupmode="layer"
     id="g996"
     inkscape:label="DownStreamMinor"
     style="display:none"
     sodipodi:insensitive="true">
    <path
       style="display:inline;fill:#000000;fill-opacity:1;stroke:#000000;stroke-width:0.264583px;stroke-linecap:butt;stroke-linejoin:miter;stroke-opacity:1"
       d="m 64.332575,85.396692 0.56301,44.571838 h 9.5779 l -14.7891,19.76692 -14.7891,-19.76692 h 10.1409 l -0.563,-44.571838 z"
       id="path992"
       sodipodi:nodetypes="cccccccc" />
    <rect
       style="display:inline;fill:none;fill-opacity:1;fill-rule:evenodd;stroke:none;stroke-width:5.29167;stroke-linejoin:round;stroke-miterlimit:4;stroke-dasharray:none;stroke-opacity:1"
       id="rect994"
       width="199.29001"
       height="199.29001"
       x="0.57103157"
       y="0.57103157" />
  </g>
  <g
     inkscape:groupmode="layer"
     id="layer10"
     inkscape:label="Switch"
     style="display:none"
     sodipodi:insensitive="true">
    <g
       id="Layer_1"
       transform="matrix(3.1327898,0,0,3.1889719,7.5073228,-8.4910449)"
       style="stroke-width:0.0837088"
       inkscape:export-filename="/Users/maybites/Arbeiten/01_projekte/181111_IASpace/01_projekte/20xx_Telematik/01_dev/telemersive-gateway/media/Layer_1.png"
       inkscape:export-xdpi="30"
       inkscape:export-ydpi="30">
      <g
         id="g959"
         style="stroke-width:0.0837088">
        <path
           d="M 7.642,7 H 20.358 C 24.579,7 28,9.674 28,12.973 v 2.054 C 28,18.326 24.579,21 20.358,21 H 7.642 C 3.421,21 0,18.326 0,15.027 V 12.973 C 0,9.674 3.421,7 7.642,7 Z"
           fill="#929292"
           id="path955"
           style="stroke-width:0.00748781" />
        <path
           d="M 7.642,7 H 20.358 C 24.579,7 28,9.674 28,12.973 v 2.054 C 28,18.326 24.579,21 20.358,21 H 7.642 C 3.421,21 0,18.326 0,15.027 V 12.973 C 0,9.674 3.421,7 7.642,7 Z"
           fill-opacity="0"
           stroke="#4c4c4c"
           stroke-width="0.0209273"
           id="path957" />
      </g>
      <g
         id="g965"
         style="stroke-width:0.0837088">
        <path
           d="M 8,22 C 3.582,22 0,18.418 0,14 0,9.582 3.582,6 8,6 c 4.418,0 8,3.582 8,8 0,4.418 -3.582,8 -8,8 z"
           fill="#000000"
           id="path961"
           style="stroke-width:0.00748781" />
        <path
           d="M 8,22 C 3.582,22 0,18.418 0,14 0,9.582 3.582,6 8,6 c 4.418,0 8,3.582 8,8 0,4.418 -3.582,8 -8,8 z"
           fill-opacity="0"
           stroke="#3e3e3e"
           stroke-width="0.0837088"
           id="path963" />
      </g>
    </g>
    <g
       id="Layer_1-6"
       transform="matrix(3.1860825,0,0,3.2432915,6.3582688,54.979153)"
       style="stroke-width:0.0823078"
       inkscape:export-filename="/Users/maybites/Arbeiten/01_projekte/181111_IASpace/01_projekte/20xx_Telematik/01_dev/telemersive-gateway/media/Layer_1.png"
       inkscape:export-xdpi="30"
       inkscape:export-ydpi="30">
      <g
         id="g1047"
         style="stroke-width:0.0823078">
        <path
           d="M 7.642,7 H 20.358 C 24.579,7 28,9.674 28,12.973 v 2.054 C 28,18.326 24.579,21 20.358,21 H 7.642 C 3.421,21 0,18.326 0,15.027 V 12.973 C 0,9.674 3.421,7 7.642,7 Z"
           fill="#ddfa1a"
           id="path1043"
           style="stroke-width:0.00640963" />
        <path
           d="M 7.642,7 H 20.358 C 24.579,7 28,9.674 28,12.973 v 2.054 C 28,18.326 24.579,21 20.358,21 H 7.642 C 3.421,21 0,18.326 0,15.027 V 12.973 C 0,9.674 3.421,7 7.642,7 Z"
           fill-opacity="0"
           stroke="#4c4c4c"
           stroke-width="0.020577"
           id="path1045" />
      </g>
      <g
         id="g1053"
         style="stroke-width:0.0823078">
        <path
           d="m 20,22 c -4.418,0 -8,-3.582 -8,-8 0,-4.418 3.582,-8 8,-8 4.418,0 8,3.582 8,8 0,4.418 -3.582,8 -8,8 z"
           fill="#000000"
           id="path1049"
           style="stroke-width:0.00640963" />
        <path
           d="m 20,22 c -4.418,0 -8,-3.582 -8,-8 0,-4.418 3.582,-8 8,-8 4.418,0 8,3.582 8,8 0,4.418 -3.582,8 -8,8 z"
           fill-opacity="0"
           stroke="#3e3e3e"
           stroke-width="0.0823078"
           id="path1051" />
      </g>
    </g>
    <g
       id="g1083"
       transform="matrix(3.1327898,0,0,3.1889719,7.5073228,-8.4910449)"
       style="stroke-width:0.0837088"
       inkscape:export-filename="/Users/maybites/Arbeiten/01_projekte/181111_IASpace/01_projekte/20xx_Telematik/01_dev/telemersive-gateway/media/Layer_1.png"
       inkscape:export-xdpi="30"
       inkscape:export-ydpi="30">
      <g
         id="g1075"
         style="stroke-width:0.0837088">
        <path
           d="M 7.642,7 H 20.358 C 24.579,7 28,9.674 28,12.973 v 2.054 C 28,18.326 24.579,21 20.358,21 H 7.642 C 3.421,21 0,18.326 0,15.027 V 12.973 C 0,9.674 3.421,7 7.642,7 Z"
           fill="#929292"
           id="path1071"
           style="stroke-width:0.00748781" />
        <path
           d="M 7.642,7 H 20.358 C 24.579,7 28,9.674 28,12.973 v 2.054 C 28,18.326 24.579,21 20.358,21 H 7.642 C 3.421,21 0,18.326 0,15.027 V 12.973 C 0,9.674 3.421,7 7.642,7 Z"
           fill-opacity="0"
           stroke="#4c4c4c"
           stroke-width="0.0209273"
           id="path1073" />
      </g>
      <g
         id="g1081"
         style="stroke-width:0.0837088">
        <path
           d="M 8,22 C 3.582,22 0,18.418 0,14 0,9.582 3.582,6 8,6 c 4.418,0 8,3.582 8,8 0,4.418 -3.582,8 -8,8 z"
           fill="#000000"
           id="path1077"
           style="stroke-width:0.00748781" />
        <path
           d="M 8,22 C 3.582,22 0,18.418 0,14 0,9.582 3.582,6 8,6 c 4.418,0 8,3.582 8,8 0,4.418 -3.582,8 -8,8 z"
           fill-opacity="0"
           stroke="#3e3e3e"
           stroke-width="0.0837088"
           id="path1079" />
      </g>
    </g>
    <g
       id="g1097"
       transform="matrix(3.1860825,0,0,3.2432915,6.3582688,54.979153)"
       style="stroke-width:0.0823078"
       inkscape:export-filename="/Users/maybites/Arbeiten/01_projekte/181111_IASpace/01_projekte/20xx_Telematik/01_dev/telemersive-gateway/media/Layer_1.png"
       inkscape:export-xdpi="30"
       inkscape:export-ydpi="30">
      <g
         id="g1089"
         style="stroke-width:0.0823078">
        <path
           d="M 7.642,7 H 20.358 C 24.579,7 28,9.674 28,12.973 v 2.054 C 28,18.326 24.579,21 20.358,21 H 7.642 C 3.421,21 0,18.326 0,15.027 V 12.973 C 0,9.674 3.421,7 7.642,7 Z"
           fill="#ddfa1a"
           id="path1085"
           style="stroke-width:0.00640963" />
        <path
           d="M 7.642,7 H 20.358 C 24.579,7 28,9.674 28,12.973 v 2.054 C 28,18.326 24.579,21 20.358,21 H 7.642 C 3.421,21 0,18.326 0,15.027 V 12.973 C 0,9.674 3.421,7 7.642,7 Z"
           fill-opacity="0"
           stroke="#4c4c4c"
           stroke-width="0.020577"
           id="path1087" />
      </g>
      <g
         id="g1095"
         style="stroke-width:0.0823078">
        <path
           d="m 20,22 c -4.418,0 -8,-3.582 -8,-8 0,-4.418 3.582,-8 8,-8 4.418,0 8,3.582 8,8 0,4.418 -3.582,8 -8,8 z"
           fill="#000000"
           id="path1091"
           style="stroke-width:0.00640963" />
        <path
           d="m 20,22 c -4.418,0 -8,-3.582 -8,-8 0,-4.418 3.582,-8 8,-8 4.418,0 8,3.582 8,8 0,4.418 -3.582,8 -8,8 z"
           fill-opacity="0"
           stroke="#3e3e3e"
           stroke-width="0.0823078"
           id="path1093" />
      </g>
    </g>
    <g
       id="g1111"
       transform="matrix(3.1327898,0,0,3.1889719,107.37716,-8.4910449)"
       style="stroke-width:0.0837088"
       inkscape:export-filename="/Users/maybites/Arbeiten/01_projekte/181111_IASpace/01_projekte/20xx_Telematik/01_dev/telemersive-gateway/media/Layer_1.png"
       inkscape:export-xdpi="30"
       inkscape:export-ydpi="30">
      <g
         id="g1103"
         style="stroke-width:0.0837088">
        <path
           d="M 7.642,7 H 20.358 C 24.579,7 28,9.674 28,12.973 v 2.054 C 28,18.326 24.579,21 20.358,21 H 7.642 C 3.421,21 0,18.326 0,15.027 V 12.973 C 0,9.674 3.421,7 7.642,7 Z"
           fill="#929292"
           id="path1099"
           style="stroke-width:0.00748781" />
        <path
           d="M 7.642,7 H 20.358 C 24.579,7 28,9.674 28,12.973 v 2.054 C 28,18.326 24.579,21 20.358,21 H 7.642 C 3.421,21 0,18.326 0,15.027 V 12.973 C 0,9.674 3.421,7 7.642,7 Z"
           fill-opacity="0"
           stroke="#4c4c4c"
           stroke-width="0.0209273"
           id="path1101" />
      </g>
      <g
         id="g1109"
         style="stroke-width:0.0837088">
        <path
           d="M 8,22 C 3.582,22 0,18.418 0,14 0,9.582 3.582,6 8,6 c 4.418,0 8,3.582 8,8 0,4.418 -3.582,8 -8,8 z"
           fill="#000000"
           id="path1105"
           style="stroke-width:0.00748781" />
        <path
           d="M 8,22 C 3.582,22 0,18.418 0,14 0,9.582 3.582,6 8,6 c 4.418,0 8,3.582 8,8 0,4.418 -3.582,8 -8,8 z"
           fill-opacity="0"
           stroke="#3e3e3e"
           stroke-width="0.0837088"
           id="path1107" />
      </g>
    </g>
    <g
       id="g1125"
       transform="matrix(3.1860825,0,0,3.2432915,106.2281,54.979153)"
       style="stroke-width:0.0823078"
       inkscape:export-filename="/Users/maybites/Arbeiten/01_projekte/181111_IASpace/01_projekte/20xx_Telematik/01_dev/telemersive-gateway/media/Layer_1.png"
       inkscape:export-xdpi="30"
       inkscape:export-ydpi="30">
      <g
         id="g1117"
         style="stroke-width:0.0823078">
        <path
           d="M 7.642,7 H 20.358 C 24.579,7 28,9.674 28,12.973 v 2.054 C 28,18.326 24.579,21 20.358,21 H 7.642 C 3.421,21 0,18.326 0,15.027 V 12.973 C 0,9.674 3.421,7 7.642,7 Z"
           fill="#ddfa1a"
           id="path1113"
           style="stroke-width:0.00640963" />
        <path
           d="M 7.642,7 H 20.358 C 24.579,7 28,9.674 28,12.973 v 2.054 C 28,18.326 24.579,21 20.358,21 H 7.642 C 3.421,21 0,18.326 0,15.027 V 12.973 C 0,9.674 3.421,7 7.642,7 Z"
           fill-opacity="0"
           stroke="#4c4c4c"
           stroke-width="0.020577"
           id="path1115" />
      </g>
      <g
         id="g1123"
         style="stroke-width:0.0823078">
        <path
           d="m 20,22 c -4.418,0 -8,-3.582 -8,-8 0,-4.418 3.582,-8 8,-8 4.418,0 8,3.582 8,8 0,4.418 -3.582,8 -8,8 z"
           fill="#000000"
           id="path1119"
           style="stroke-width:0.00640963" />
        <path
           d="m 20,22 c -4.418,0 -8,-3.582 -8,-8 0,-4.418 3.582,-8 8,-8 4.418,0 8,3.582 8,8 0,4.418 -3.582,8 -8,8 z"
           fill-opacity="0"
           stroke="#3e3e3e"
           stroke-width="0.0823078"
           id="path1121" />
      </g>
    </g>
    <g
       id="g1139"
       transform="matrix(3.1860825,0,0,3.2432915,6.3582688,117.57806)"
       style="stroke-width:0.0823078">
      <g
         id="g1131"
         style="stroke-width:0.0823078">
        <path
           d="M 7.642,7 H 20.358 C 24.579,7 28,9.674 28,12.973 v 2.054 C 28,18.326 24.579,21 20.358,21 H 7.642 C 3.421,21 0,18.326 0,15.027 V 12.973 C 0,9.674 3.421,7 7.642,7 Z"
           fill="#ddfa1a"
           id="path1127"
           style="stroke-width:0.00640963" />
        <path
           d="M 7.642,7 H 20.358 C 24.579,7 28,9.674 28,12.973 v 2.054 C 28,18.326 24.579,21 20.358,21 H 7.642 C 3.421,21 0,18.326 0,15.027 V 12.973 C 0,9.674 3.421,7 7.642,7 Z"
           fill-opacity="0"
           stroke="#4c4c4c"
           stroke-width="0.020577"
           id="path1129" />
      </g>
      <g
         id="g1137"
         style="stroke-width:0.0823078">
        <path
           d="m 20,22 c -4.418,0 -8,-3.582 -8,-8 0,-4.418 3.582,-8 8,-8 4.418,0 8,3.582 8,8 0,4.418 -3.582,8 -8,8 z"
           fill="#000000"
           id="path1133"
           style="stroke-width:0.00640963" />
        <path
           d="m 20,22 c -4.418,0 -8,-3.582 -8,-8 0,-4.418 3.582,-8 8,-8 4.418,0 8,3.582 8,8 0,4.418 -3.582,8 -8,8 z"
           fill-opacity="0"
           stroke="#3e3e3e"
           stroke-width="0.0823078"
           id="path1135" />
      </g>
    </g>
    <g
       id="g1153"
       transform="matrix(3.1860825,0,0,3.2432915,6.3582688,117.57806)"
       style="stroke-width:0.0823078">
      <g
         id="g1145"
         style="stroke-width:0.0823078">
        <path
           d="M 7.642,7 H 20.358 C 24.579,7 28,9.674 28,12.973 v 2.054 C 28,18.326 24.579,21 20.358,21 H 7.642 C 3.421,21 0,18.326 0,15.027 V 12.973 C 0,9.674 3.421,7 7.642,7 Z"
           fill="#ddfa1a"
           id="path1141"
           style="stroke-width:0.00640963" />
        <path
           d="M 7.642,7 H 20.358 C 24.579,7 28,9.674 28,12.973 v 2.054 C 28,18.326 24.579,21 20.358,21 H 7.642 C 3.421,21 0,18.326 0,15.027 V 12.973 C 0,9.674 3.421,7 7.642,7 Z"
           fill-opacity="0"
           stroke="#4c4c4c"
           stroke-width="0.020577"
           id="path1143" />
      </g>
      <g
         id="g1151"
         style="stroke-width:0.0823078">
        <path
           d="m 20,22 c -4.418,0 -8,-3.582 -8,-8 0,-4.418 3.582,-8 8,-8 4.418,0 8,3.582 8,8 0,4.418 -3.582,8 -8,8 z"
           fill="#000000"
           id="path1147"
           style="stroke-width:0.00640963" />
        <path
           d="m 20,22 c -4.418,0 -8,-3.582 -8,-8 0,-4.418 3.582,-8 8,-8 4.418,0 8,3.582 8,8 0,4.418 -3.582,8 -8,8 z"
           fill-opacity="0"
           stroke="#3e3e3e"
           stroke-width="0.0823078"
           id="path1149" />
      </g>
    </g>
    <g
       id="g1167"
       transform="matrix(3.1860825,0,0,3.2432915,106.2281,117.57806)"
       style="stroke-width:0.0823078">
      <g
         id="g1159"
         style="stroke-width:0.0823078">
        <path
           d="M 7.642,7 H 20.358 C 24.579,7 28,9.674 28,12.973 v 2.054 C 28,18.326 24.579,21 20.358,21 H 7.642 C 3.421,21 0,18.326 0,15.027 V 12.973 C 0,9.674 3.421,7 7.642,7 Z"
           fill="#ddfa1a"
           id="path1155"
           style="stroke-width:0.00640963" />
        <path
           d="M 7.642,7 H 20.358 C 24.579,7 28,9.674 28,12.973 v 2.054 C 28,18.326 24.579,21 20.358,21 H 7.642 C 3.421,21 0,18.326 0,15.027 V 12.973 C 0,9.674 3.421,7 7.642,7 Z"
           fill-opacity="0"
           stroke="#4c4c4c"
           stroke-width="0.020577"
           id="path1157" />
      </g>
      <g
         id="g1165"
         style="stroke-width:0.0823078">
        <path
           d="m 20,22 c -4.418,0 -8,-3.582 -8,-8 0,-4.418 3.582,-8 8,-8 4.418,0 8,3.582 8,8 0,4.418 -3.582,8 -8,8 z"
           fill="#000000"
           id="path1161"
           style="stroke-width:0.00640963" />
        <path
           d="m 20,22 c -4.418,0 -8,-3.582 -8,-8 0,-4.418 3.582,-8 8,-8 4.418,0 8,3.582 8,8 0,4.418 -3.582,8 -8,8 z"
           fill-opacity="0"
           stroke="#3e3e3e"
           stroke-width="0.0823078"
           id="path1163" />
      </g>
    </g>
  </g>
  <g
     inkscape:groupmode="layer"
     id="layer11"
     inkscape:label="OpenDrawer"
     sodipodi:insensitive="true"
     style="display:none">
    <rect
       style="fill:#bfbfbf;fill-opacity:1;fill-rule:evenodd;stroke:#4a4a4a;stroke-width:5.292;stroke-linejoin:round;stroke-miterlimit:4;stroke-dasharray:none;stroke-opacity:1"
       id="rect941"
       width="193.35239"
       height="193.35239"
       x="3.4704275"
       y="3.4704275"
       rx="10"
       ry="10" />
    <path
       style="fill:#808080;fill-opacity:1;stroke:none;stroke-width:0.265;stroke-linecap:round;stroke-linejoin:round;stroke-miterlimit:4;stroke-dasharray:none;stroke-opacity:1"
       d="M 69.408552,46.107109 V 150 l 77.939478,-48.25927 z"
       id="path943"
       sodipodi:nodetypes="cccc" />
  </g>
  <g
     inkscape:groupmode="layer"
     id="g1003"
     inkscape:label="CloseDrawer"
     style="display:none"
     sodipodi:insensitive="true">
    <rect
       style="fill:#bfbfbf;fill-opacity:1;fill-rule:evenodd;stroke:#4a4a4a;stroke-width:5.292;stroke-linejoin:round;stroke-miterlimit:4;stroke-dasharray:none;stroke-opacity:1"
       id="rect999"
       width="193.35239"
       height="193.35239"
       x="3.4704275"
       y="3.4704275"
       rx="10"
       ry="10" />
    <path
       style="fill:#808080;fill-opacity:1;stroke:none;stroke-width:0.265;stroke-linecap:round;stroke-linejoin:round;stroke-miterlimit:4;stroke-dasharray:none;stroke-opacity:1"
       d="M 137.2938,150 V 46.107109 l -77.939421,48.25927 z"
       id="path1001"
       sodipodi:nodetypes="cccc" />
  </g>
  <g
     inkscape:groupmode="layer"
     id="g1142"
     inkscape:label="HidePeers"
     style="display:inline">
    <rect
       style="fill:#bfbfbf;fill-opacity:1;fill-rule:evenodd;stroke:#4a4a4a;stroke-width:5.292;stroke-linejoin:round;stroke-miterlimit:4;stroke-dasharray:none;stroke-opacity:1"
       id="rect1138"
       width="193.35239"
       height="193.35239"
       x="3.4704275"
       y="3.4704275"
       rx="10"
       ry="10" />
    <path
       style="fill:#808080;fill-opacity:1;stroke:none;stroke-width:0.265;stroke-linecap:round;stroke-linejoin:round;stroke-miterlimit:4;stroke-dasharray:none;stroke-opacity:1"
       d="M 47.686481,134.98147 H 151.57938 L 99.150039,58.23352 Z"
       id="path1140"
       sodipodi:nodetypes="cccc" />
  </g>
  <g
     inkscape:groupmode="layer"
     id="g1148"
     inkscape:label="ShowPeers"
     style="display:inline">
    <rect
       style="fill:#bfbfbf;fill-opacity:1;fill-rule:evenodd;stroke:#4a4a4a;stroke-width:5.292;stroke-linejoin:round;stroke-miterlimit:4;stroke-dasharray:none;stroke-opacity:1"
       id="rect1144"
       width="193.35239"
       height="193.35239"
       x="3.4704275"
       y="3.4704275"
       rx="10"
       ry="10" />
    <path
       style="fill:#808080;fill-opacity:1;stroke:none;stroke-width:0.265;stroke-linecap:round;stroke-linejoin:round;stroke-miterlimit:4;stroke-dasharray:none;stroke-opacity:1"
       d="M 151.05021,64.583524 H 47.157314 l 52.429338,76.747986 z"
       id="path1146"
       sodipodi:nodetypes="cccc" />
  </g>
</svg>
